<svg width="16" height="16" viewBox="0 0 16 16" fill="none" xmlns="http://www.w3.org/2000/svg">
<g clip-path="url(#clip0_2418_145)">
<circle cx="8" cy="8" r="8" fill="#141416"/>
<path d="M4.40077 9.61686H7.40351V10.8736H2.11398V9.77012L4.40789 8.37931C4.77834 8.15453 5.05973 7.96935 5.25208 7.82375C5.44443 7.67561 5.58097 7.53895 5.66171 7.41379C5.74244 7.28863 5.78281 7.15198 5.78281 7.00383C5.78281 6.76628 5.69258 6.57727 5.5121 6.43678C5.33163 6.29374 5.07517 6.22222 4.74272 6.22222C4.33903 6.22222 4.0327 6.3129 3.82373 6.49425C3.61713 6.67305 3.50078 6.90677 3.47466 7.1954H2C2.0285 6.75096 2.16623 6.36398 2.41319 6.03448C2.66015 5.70243 2.99023 5.447 3.40342 5.2682C3.81661 5.0894 4.28085 5 4.79615 5C5.28058 5 5.7092 5.08046 6.08202 5.24138C6.45484 5.4023 6.74336 5.62835 6.94758 5.91954C7.15417 6.20817 7.25747 6.53895 7.25747 6.91188C7.25747 7.20562 7.18385 7.47893 7.03663 7.7318C6.8894 7.98212 6.65906 8.22861 6.3456 8.47126C6.03453 8.71137 5.62252 8.96552 5.1096 9.23372L4.40077 9.61686Z" fill="white"/>
<path d="M11.0044 11C10.4036 11 9.87643 10.8761 9.42287 10.6284C8.97169 10.378 8.62261 10.0268 8.37565 9.57471C8.12869 9.12005 8.0052 8.59515 8.0052 8C8.0052 7.40485 8.12869 6.88123 8.37565 6.42912C8.62261 5.97446 8.97169 5.62324 9.42287 5.37548C9.87643 5.12516 10.4036 5 11.0044 5C11.6052 5 12.1312 5.12516 12.5823 5.37548C13.0359 5.62324 13.385 5.97446 13.6296 6.42912C13.8765 6.88123 14 7.40485 14 8C14 8.59515 13.8765 9.12005 13.6296 9.57471C13.385 10.0268 13.0359 10.378 12.5823 10.6284C12.1312 10.8761 11.6052 11 11.0044 11ZM11.0044 9.70881C11.3226 9.70881 11.5957 9.6424 11.8236 9.50958C12.054 9.3742 12.2285 9.1788 12.3472 8.92337C12.4684 8.66794 12.5289 8.36015 12.5289 8C12.5289 7.63985 12.4684 7.33206 12.3472 7.07663C12.2285 6.8212 12.054 6.62708 11.8236 6.49425C11.5957 6.35888 11.3226 6.29119 11.0044 6.29119C10.6862 6.29119 10.4119 6.35888 10.1816 6.49425C9.9536 6.62708 9.77907 6.8212 9.65796 7.07663C9.53923 7.33206 9.47986 7.63985 9.47986 8C9.47986 8.36015 9.53923 8.66794 9.65796 8.92337C9.77907 9.1788 9.9536 9.3742 10.1816 9.50958C10.4119 9.6424 10.6862 9.70881 11.0044 9.70881Z" fill="white"/>
</g>
<defs>
<clipPath id="clip0_2418_145">
<rect width="16" height="16" fill="white"/>
</clipPath>
</defs>
</svg>
